# xmcd
#
# Track frame offsets: 
#        150
#        15396
#        29669
#        51739
#        72662
#        90306
#        110079
#        132522
#        153522
#        166942
#        184569
#        199169
#        219600
#        242025
#
# Disc length: 3462 seconds
#
# Revision: 1
# Processed by: cddbd v1.5.2PL0 Copyright (c) Steve Scherf et al.
# Submitted via: ExactAudioCopyFreeDBPlugin 1.0
#
DISCID=cd0d840e
DTITLE=Vivian Campbell - Two Sides Of If
DYEAR=2018
DGENRE=Blues
TTITLE0=Messin' With The Kid
TTITLE1=I'm Ready
TTITLE2=Calling Card
TTITLE3=Come On In My Kitchen
TTITLE4=Hunter
TTITLE5=Like It This Way
TTITLE6=I Ain't Superstitious
TTITLE7=Spoonful
TTITLE8=Reconsider Baby
TTITLE9=Good Or Bad Times
TTITLE10=32-20 Blues
TTITLE11=Willin' For Satisfaction
TTITLE12=Sixgunz (Bonus Track)
TTITLE13=Shout It Out Loud (Bonus Track)
EXTD=
EXTT0=
EXTT1=
EXTT2=
EXTT3=
EXTT4=
EXTT5=
EXTT6=
EXTT7=
EXTT8=
EXTT9=
EXTT10=
EXTT11=
EXTT12=
EXTT13=
PLAYORDER=
